<svg xmlns="http://www.w3.org/2000/svg" width="180" height="32.432"><path d="M173.281 10.953a14.589 14.589 0 10-14.119 18.23h11.539a9.3 9.3 0 002.58-18.23zm-2.58 15.6h-11.54a11.961 11.961 0 1111.88-13.323h-.009a6.665 6.665 0 01-.332 13.323z" fill="#eb3745"/><path d="M170.701 15.962h-2.315v-1.37a9.225 9.225 0 10-9.225 9.223h11.535a3.926 3.926 0 100-7.852" fill="#eb3745"/><path d="M2.881 32.432H.448A.449.449 0 010 31.984v-23.5a.445.445 0 01.445-.445h2.47a.447.447 0 01.447.448v1.817a8.374 8.374 0 016.176-2.676 9.441 9.441 0 019.676 9.707 9.694 9.694 0 01-2.676 6.758 8.777 8.777 0 01-6.794 2.846 8.633 8.633 0 01-6.416-2.71v7.749a.448.448 0 01-.448.448zm6.555-8.712a6.325 6.325 0 006.313-6.346A6.367 6.367 0 009.4 10.789a6.472 6.472 0 00.034 12.931zm26.628.548a8.374 8.374 0 01-6.176 2.676 9.412 9.412 0 01-9.642-9.706 9.665 9.665 0 012.642-6.758 8.774 8.774 0 016.794-2.847 8.507 8.507 0 016.382 2.711V8.56a.447.447 0 01.448-.446h2.467a.447.447 0 01.448.446v17.525a.447.447 0 01-.448.448h-2.467a.447.447 0 01-.448-.448v-1.816zm-6-.479a6.471 6.471 0 00-.069-12.931 6.3 6.3 0 00-6.313 6.345 6.4 6.4 0 006.382 6.585zm13.314 8.643h-2.437a.448.448 0 01-.448-.448V8.491a.447.447 0 01.448-.448h2.467a.447.447 0 01.448.448v1.817a8.375 8.375 0 016.176-2.676 9.44 9.44 0 019.676 9.707 9.7 9.7 0 01-2.676 6.758 8.774 8.774 0 01-6.795 2.846 8.635 8.635 0 01-6.416-2.709v7.75a.448.448 0 01-.448.448zm6.555-8.712a6.325 6.325 0 006.309-6.346 6.367 6.367 0 00-6.342-6.585 6.472 6.472 0 00.034 12.931zm20.349.069a5.735 5.735 0 005.019-2.8.452.452 0 01.384-.221h2.792a.449.449 0 01.4.642 9.183 9.183 0 01-8.6 5.67 8.972 8.972 0 01-6.795-2.882 10.018 10.018 0 01-2.743-6.824 9.6 9.6 0 012.608-6.722 8.99 8.99 0 016.863-3.019 9.416 9.416 0 017.961 4.287 10.8 10.8 0 011.579 6.174v.067a.448.448 0 01-.448.447H64.24a6.049 6.049 0 006.038 5.181zm.034-12.931a6.062 6.062 0 00-5.97 4.768h11.765c-.823-3.02-2.95-4.768-5.8-4.768zm10.671 15.436V8.774a.448.448 0 01.448-.448h2.225a.447.447 0 01.448.447v1.679c1-1.5 3.176-2.26 4.814-2.409a.45.45 0 01.491.448v2.583a.444.444 0 01-.389.443c-2.818.339-4.71 1.885-4.71 4.97v9.807a.447.447 0 01-.448.448h-2.432a.448.448 0 01-.448-.448M93.54 11.488h-3.107a.448.448 0 01-.448-.448V8.917a.447.447 0 01.448-.448h3.107V3.581a.448.448 0 01.448-.448h2.4a.448.448 0 01.448.447v4.888h3.108a.448.448 0 01.448.449v2.122a.448.448 0 01-.448.448h-3.11V26.44a.449.449 0 01-.448.448h-2.4a.449.449 0 01-.448-.448V11.489m7.692 14.8V8.774a.447.447 0 01.448-.448h2.226a.447.447 0 01.448.448v1.68c1-1.5 3.184-2.263 4.823-2.411a.445.445 0 01.482.448v2.583a.441.441 0 01-.384.441c-2.821.336-4.715 1.883-4.715 4.972v9.807a.447.447 0 01-.448.448h-2.432a.445.445 0 01-.448-.447m23.691-2.026a8.372 8.372 0 01-6.175 2.676 9.411 9.411 0 01-9.642-9.706 9.665 9.665 0 012.642-6.758 8.774 8.774 0 016.794-2.847 8.5 8.5 0 016.381 2.711V8.56a.448.448 0 01.448-.446h2.467a.448.448 0 01.448.446v17.525a.448.448 0 01-.448.448h-2.467a.447.447 0 01-.448-.448v-1.816zm-6-.479a6.471 6.471 0 00-.069-12.931 6.3 6.3 0 00-6.312 6.345 6.4 6.4 0 006.381 6.585zm11.557-18.208V3.063a.42.42 0 01.448-.387h2.4a.421.421 0 01.448.387v2.518a.42.42 0 01-.448.388h-2.4a.421.421 0 01-.448-.388zm.448 2.431h2.4a.447.447 0 01.448.448v17.523a.448.448 0 01-.448.448h-2.4a.448.448 0 01-.448-.448V8.46a.447.447 0 01.448-.447zm5.624-5.339h2.4a.448.448 0 01.448.448v22.863a.448.448 0 01-.448.447h-2.4a.447.447 0 01-.448-.448V3.124a.446.446 0 01.448-.447" fill="#fff"/></svg>